<svg xmlns="http://www.w3.org/2000/svg" viewBox="0 0 400 300" width="406" height="306" class="illustration styles_illustrationTablet__1DWOa"><g id="_232_designer_flatline" data-name="#232_designer_flatline"><path d="M293.05,204.1s32.93-85.9,15.87-99-88.61-7.81-92.53-3.13-27,108.08-27,108.08Z" fill="#231f20"></path><path d="M189.34,210.57a.52.52,0,0,1-.38-.17.48.48,0,0,1-.1-.43c.94-4.23,23.19-103.58,27.15-108.3,2.17-2.59,21.27-5,41.71-5.27,12-.16,41.09.33,51.51,8.32,7.25,5.56,6.79,24-1.36,54.92-6,22.87-14.27,44.42-14.35,44.63a.49.49,0,0,1-.44.32l-103.71,6ZM261.5,97.37l-3.76,0c-21,.28-39.25,2.87-41,4.92-3,3.61-18.76,71.33-26.8,107.23l102.73-5.92c2.11-5.59,32-85.78,15.92-98.11C301.82,100.3,284.75,97.37,261.5,97.37ZM293.05,204.1h0Z" fill="#231f20"></path><path d="M159.34,129.88,144.5,179.69s30.61,3.95,30.61,2.82,6-54.81,6-54.81Z" fill="#fff"></path><path d="M173.57,183.16c-5.17,0-19.84-1.78-29.13-3a.51.51,0,0,1-.42-.64l14.84-49.81a.5.5,0,0,1,.43-.36l21.78-2.18a.49.49,0,0,1,.4.15.46.46,0,0,1,.14.4c-2.07,18.5-6,53.75-6,54.76a.64.64,0,0,1-.2.43A4.13,4.13,0,0,1,173.57,183.16Zm1-.67v0Zm-29.46-3.22c10.64,1.36,27.16,3.25,29.48,2.92.38-4.32,5.25-47.92,5.92-53.93l-20.82,2.09Z" fill="#231f20"></path><path d="M131.21,117.51c.13.14,5.4-1.27,8.12,2s-.81,6.19-9.4,4.5S131.21,117.51,131.21,117.51Z" fill="#fff"></path><path d="M134.46,125a24.43,24.43,0,0,1-4.63-.49c-2.48-.49-3.76-1.29-3.91-2.46-.29-2.26,4.17-4.55,5.07-5a.5.5,0,0,1,.32,0l.33,0c1.4-.17,5.66-.71,8.08,2.19,1.08,1.28,1.31,2.59.67,3.69C139.56,124.24,137.41,125,134.46,125Zm-3.14-7c-1.95,1-4.52,2.76-4.38,3.87,0,.37.52,1.07,3.09,1.58,5.81,1.14,8.73.08,9.47-1.17a2.21,2.21,0,0,0-.57-2.5c-2.06-2.46-5.77-2-7.16-1.82C131.58,118,131.44,118,131.32,118Z" fill="#231f20"></path><path d="M118,107.06s-1.08-1.24-.4-2.11a1.47,1.47,0,0,1,2.38.22S118.28,105.78,118,107.06Z" fill="#fff"></path><path d="M118,107.57a.52.52,0,0,1-.39-.17c-.5-.58-1.16-1.82-.41-2.76a1.8,1.8,0,0,1,1.43-.71,2.19,2.19,0,0,1,1.74.91.5.5,0,0,1,.1.47.51.51,0,0,1-.32.35c-.4.14-1.47.7-1.65,1.51a.51.51,0,0,1-.37.39Zm.65-2.61h0a.82.82,0,0,0-.63.31.77.77,0,0,0,0,.71,3.93,3.93,0,0,1,1.08-.92A.81.81,0,0,0,118.66,105Z" fill="#231f20"></path><path d="M120.36,105.12a2.7,2.7,0,0,0-2.44,2.22l21.45,27.91a6,6,0,0,1,5.13-5.35Z" fill="#fff"></path><path d="M139.36,135.76a.51.51,0,0,1-.4-.2l-21.45-27.91a.52.52,0,0,1-.09-.45,3.26,3.26,0,0,1,2.94-2.6.52.52,0,0,1,.37.16l24.14,24.78a.5.5,0,0,1,.12.52.51.51,0,0,1-.4.35,5.48,5.48,0,0,0-4.71,4.88.51.51,0,0,1-.37.45Zm-20.87-28.52,20.61,26.81a6.4,6.4,0,0,1,4.39-4.45l-23.32-23.94A2.2,2.2,0,0,0,118.49,107.24Z" fill="#231f20"></path><path d="M139.37,135.25l7.32,3.8.91-.85-3.1-8.3S138.8,129.33,139.37,135.25Z" fill="#fff"></path><path d="M146.69,139.56a.48.48,0,0,1-.24-.06l-7.32-3.8a.51.51,0,0,1-.28-.41,5.32,5.32,0,0,1,1.29-4.48,6,6,0,0,1,4.41-1.43.52.52,0,0,1,.44.34l3.09,8.3a.51.51,0,0,1-.13.56l-.91.85A.53.53,0,0,1,146.69,139.56Zm-6.83-4.64,6.74,3.5.4-.36-2.86-7.66a4.89,4.89,0,0,0-3.28,1.14A4.2,4.2,0,0,0,139.86,134.92Z" fill="#231f20"></path><polygon points="146.69 139.05 148.09 140.55 148.75 139.8 147.6 138.2 146.69 139.05" fill="#fff"></polygon><path d="M148.09,141.07a.48.48,0,0,1-.37-.17l-1.41-1.5a.55.55,0,0,1-.14-.37.53.53,0,0,1,.17-.36l.91-.85a.52.52,0,0,1,.77.08l1.15,1.6a.51.51,0,0,1,0,.64l-.66.75a.49.49,0,0,1-.38.18Zm-.67-2,.66.71h0l-.57-.79Z" fill="#231f20"></path><path d="M132.57,137.44c1.18-2.39,4.14-7.46,4.82-9.66,1.88-6-9.13-11.62-12.69-11.62s-11,12.44-11,19.09,24.65,57.57,24.65,57.57L162,182Z" fill="#fff"></path><path d="M138.38,193.34a.51.51,0,0,1-.46-.29c-1-2.08-24.71-51.12-24.71-57.8s7.52-19.61,11.49-19.61c2.74,0,9.11,2.92,12,6.8a6,6,0,0,1,1.23,5.5,54.94,54.94,0,0,1-3.34,6.85c-.53,1-1,1.9-1.38,2.61l29.29,44.3a.54.54,0,0,1,.07.43.52.52,0,0,1-.28.32l-23.66,10.84A.38.38,0,0,1,138.38,193.34ZM124.7,116.67c-3.13,0-10.45,12-10.45,18.58,0,6.12,21.93,51.81,24.37,56.9l22.65-10.38-29.13-44a.54.54,0,0,1,0-.52c.38-.76.93-1.79,1.53-2.91a54.61,54.61,0,0,0,3.26-6.67,5,5,0,0,0-1.07-4.58C133.07,119.3,127,116.67,124.7,116.67Z" fill="#231f20"></path><path d="M258.4,147.52l29.15-7.43c-1-1.41-12.76-38.74-25.16-44.85-10.85-7.2-36.58-12-59.31-10.37,0,0-6-.22-16.52,3.95C160.94,99,156,134.45,156,134.45l20,6.91s-3.82,45.85-7.43,69.82c0,0,44.22,8.65,108.6-2C277.22,209.16,258.52,154.3,258.4,147.52Z" fill="#b23b38"></path><path d="M256,96.27c-3.86,4-6.87,8.8-11.13,12.57-9.18,8.12-21.19,14.55-33.78,13.77-14.84-.92-27.67-11.06-30.89-25.83-2-9.26.08-17.86,7.24-24.4,4.95-4.52,11.29-7.28,17.77-9,17.21-4.61,36.52-2.16,51.21,7.94a18.28,18.28,0,0,1,5.92,5.88c3.67,6.65-.55,13.49-5.31,18.06C256.71,95.57,256.37,95.92,256,96.27Z" fill="#b23b38"></path><path d="M205.37,106.75c-.15,0-2.91,3.36-3.05,3.41,1.57,5.92,3.23,13.63,9.93,14.39,13.59,1.55,15.65-16.57,18.21-25.12C221.05,102.07,214.41,103.13,205.37,106.75Z" fill="#231f20"></path><path d="M213.84,125.15a15.51,15.51,0,0,1-1.64-.1c-6.69-.76-8.58-8-10.11-13.79l-.26-1a.5.5,0,0,1,.2-.53c.16-.15.89-1,1.42-1.62,1.55-1.78,1.57-1.79,1.73-1.86h0a124.41,124.41,0,0,1,17-5.21c2.55-.64,5.18-1.3,8.1-2.12a.5.5,0,0,1,.49.13.52.52,0,0,1,.12.49c-.38,1.27-.75,2.77-1.15,4.36C227.67,112.46,224.5,125.14,213.84,125.15Zm-11-14.83.18.69c1.53,5.8,3.25,12.37,9.26,13,11.13,1.27,14.24-11.24,16.52-20.38.31-1.25.61-2.45.91-3.53-2.59.71-5,1.31-7.27,1.89a120.67,120.67,0,0,0-16.84,5.14c-.2.2-.9,1-1.42,1.61C203.48,109.64,203.09,110.08,202.87,110.32Zm-.55-.15h0Zm3.23-3Z" fill="#231f20"></path><path d="M218.53,37c-2-.08-3.28.79-5,1.41-3.35,1.18-4.91-1.62-7.79-3.11a22.13,22.13,0,0,0-27.44,5.75,16.53,16.53,0,0,0-3.73,8.3c-.42,3.46.55,7-.05,10.42a11.77,11.77,0,0,1-7.28,8.8,28.05,28.05,0,0,0,9.52-.9,9.69,9.69,0,0,1-7.24,3.45,18,18,0,0,0,11.13,3.73l-7.05,1.65c6,3.85,13.31,5,20.38,4.68,14.08-.73,37.66-6.49,37.25-24.73C231,49.46,227.16,37.4,218.53,37Z" fill="#fff"></path><path d="M191.56,81.77c-5.39,0-12.29-1-18.27-4.82a.51.51,0,0,1-.22-.51.53.53,0,0,1,.38-.4l3.92-.91a18.6,18.6,0,0,1-8.2-3.58.5.5,0,0,1,.3-.9,9.17,9.17,0,0,0,5.63-2.05,28.19,28.19,0,0,1-7.94.5.5.5,0,0,1-.45-.43.49.49,0,0,1,.32-.54,11.22,11.22,0,0,0,7-8.41,22.28,22.28,0,0,0,.06-5.42,26.72,26.72,0,0,1,0-5,17.06,17.06,0,0,1,3.84-8.56,22.62,22.62,0,0,1,28.06-5.87,16.68,16.68,0,0,1,2.42,1.61c1.62,1.23,2.9,2.2,5,1.47.45-.16.87-.34,1.28-.51a8.58,8.58,0,0,1,3.94-.93h0c8.66.38,13,12.12,13.14,19.94.18,8.29-4.35,14.82-13.47,19.39s-20,5.63-24.25,5.85C193.21,81.75,192.4,81.77,191.56,81.77Zm-16.7-5c6.46,3.75,13.87,4.25,19.06,4,4.16-.22,14.8-1.21,23.85-5.75,8.75-4.38,13.09-10.59,12.92-18.47-.17-7.44-4.16-18.61-12.18-19a7.9,7.9,0,0,0-3.51.85c-.43.18-.87.37-1.34.53-2.59.91-4.21-.32-5.92-1.62a15.43,15.43,0,0,0-2.27-1.51,21.6,21.6,0,0,0-26.82,5.61,16.07,16.07,0,0,0-3.63,8,25.56,25.56,0,0,0,0,4.79,23.32,23.32,0,0,1-.08,5.66,12.23,12.23,0,0,1-5.77,8.29,28,28,0,0,0,7.38-1,.5.5,0,0,1,.56.21.51.51,0,0,1,0,.59,10.23,10.23,0,0,1-6.22,3.52,17.5,17.5,0,0,0,9.73,2.84.49.49,0,0,1,.5.44.5.5,0,0,1-.38.55Z" fill="#231f20"></path><path d="M201.32,92.94l1,17.22s7.87,9,18,3.47,9.74-14.3,9.74-14.3L223.41,67s-9.19-2.12-11.53-20.22a55.56,55.56,0,0,1-27.12,11.51s.18,20.25,3.75,28.3S201.32,92.94,201.32,92.94Z" fill="#fff"></path><path d="M213.67,115.92c-6.88,0-11.67-5.35-11.73-5.43a.47.47,0,0,1-.12-.3l-1-16.69c-2.11.21-9.63.41-12.8-6.74-3.57-8-3.78-27.67-3.79-28.5a.51.51,0,0,1,.43-.5,55.64,55.64,0,0,0,26.86-11.38.5.5,0,0,1,.51-.09.51.51,0,0,1,.32.4c1.18,9.16,4.16,14.05,6.45,16.55a10.5,10.5,0,0,0,4.7,3.24.51.51,0,0,1,.37.39l6.66,32.36c0,.17.3,9.22-10,14.84A14.2,14.2,0,0,1,213.67,115.92Zm-10.87-6c1,1.09,8.16,8.23,17.29,3.24,9.72-5.32,9.48-13.77,9.48-13.85l-6.59-32c-1.66-.55-9.18-3.87-11.47-19.67a57.51,57.51,0,0,1-26.24,11c0,3,.5,20.46,3.69,27.67,3.37,7.58,11.91,6.15,12.27,6.09a.51.51,0,0,1,.4.09.54.54,0,0,1,.19.37Z" fill="#231f20"></path><path d="M219.66,76.06a9,9,0,0,0,6.66-1.64,9.63,9.63,0,0,0,3.58-8.72,8,8,0,0,0-1-3.49,4.25,4.25,0,0,0-2.83-2.12,6.84,6.84,0,0,0-4.18,1.11c-1.94,1-2,2.11-3.06,3.75.12-.15.21-.57.33-.72" fill="#fff"></path><path d="M221,76.67a9.7,9.7,0,0,1-1.42-.11.51.51,0,0,1-.42-.58.49.49,0,0,1,.57-.41A8.47,8.47,0,0,0,226,74a9.12,9.12,0,0,0,3.37-8.28,7.45,7.45,0,0,0-.89-3.28A3.77,3.77,0,0,0,226,60.58c-1.24-.22-2.48.35-3.86,1.06a4.23,4.23,0,0,0-2.08,2.24c-.21.38-.44.81-.75,1.28a.44.44,0,0,1-.08.11.49.49,0,0,1-.68.08.49.49,0,0,1-.12-.68l0,0s0-.13.07-.2a2,2,0,0,1,.25-.51.52.52,0,0,1,.19-.14l.19-.36a5.26,5.26,0,0,1,2.52-2.66c1.18-.61,2.81-1.45,4.48-1.16A4.77,4.77,0,0,1,229.37,62a8.47,8.47,0,0,1,1,3.71,10.07,10.07,0,0,1-3.78,9.15A9.45,9.45,0,0,1,221,76.67Z" fill="#231f20"></path><path d="M201.84,102A12.12,12.12,0,0,0,211.45,96c3.53-5.89,2.12-9.66,2.12-9.66s-4.76,6.07-12.25,6.56Z" fill="#231f20"></path><path d="M201.84,102.49a.49.49,0,0,1-.49-.47l-.53-9a.5.5,0,0,1,.47-.53c7.17-.46,11.84-6.3,11.89-6.36a.5.5,0,0,1,.47-.19.51.51,0,0,1,.39.32c.06.16,1.45,4.06-2.17,10.09a12.49,12.49,0,0,1-10,6.19Zm0-9.1.47,8.07A11.78,11.78,0,0,0,211,95.78c2.39-4,2.45-6.92,2.27-8.32A18.82,18.82,0,0,1,201.84,93.39Z" fill="#231f20"></path><path d="M200,65.57s-3.75,9.88-2.05,11.06,5.29-.7,5.29-.7" fill="#fff"></path><path d="M199.43,77.52a3,3,0,0,1-1.77-.48c-1.88-1.3,1-9.24,1.86-11.65a.5.5,0,0,1,.64-.29.5.5,0,0,1,.29.65c-1.74,4.59-3,9.9-2.22,10.46,1.19.82,3.85-.24,4.77-.72a.51.51,0,0,1,.68.21.5.5,0,0,1-.22.67A9.88,9.88,0,0,1,199.43,77.52Z" fill="#231f20"></path><ellipse cx="206.75" cy="63.36" rx="1.45" ry="2.05" transform="translate(-9.47 66.66) rotate(-17.91)" fill="#231f20"></ellipse><ellipse cx="193.36" cy="66.54" rx="1.45" ry="2.05" transform="translate(-0.89 2.64) rotate(-0.78)" fill="#231f20"></ellipse><path d="M201.19,89.32a4.6,4.6,0,0,1-2.7-.79c-3.15-2.3-3.38-7.38-3.39-7.6a.51.51,0,0,1,.4-.51c12.94-2.83,13.08-2.73,13.31-2.56a.54.54,0,0,1,.21.36h0a12.9,12.9,0,0,1-.81,5.94A8.18,8.18,0,0,1,203,89.06,6.61,6.61,0,0,1,201.19,89.32Zm-5.05-8c.12,1.21.66,4.75,2.92,6.39a4.28,4.28,0,0,0,3.63.4,7.23,7.23,0,0,0,4.6-4.31,11.57,11.57,0,0,0,.76-5C206.33,79.11,200.26,80.41,196.14,81.31Z" fill="#231f20"></path><path d="M207.75,84c-1.92,4.64-6.73,5.75-9,4.14.51-1.77,1.44-3.61,3.17-4.28A8.44,8.44,0,0,1,207.75,84Z" fill="#231f20"></path><path d="M201.19,89.31a4.62,4.62,0,0,1-2.7-.78.49.49,0,0,1-.18-.54c.68-2.44,1.85-4,3.46-4.61a9,9,0,0,1,6.15.13.51.51,0,0,1,.29.27.53.53,0,0,1,0,.39A8.2,8.2,0,0,1,203,89.06,6.64,6.64,0,0,1,201.19,89.31Zm-1.82-1.41a4.47,4.47,0,0,0,3.32.2,7.12,7.12,0,0,0,4.38-3.82,7.83,7.83,0,0,0-4.94,0C200.9,84.78,200,86,199.37,87.9Z" fill="#231f20"></path><path d="M184.29,73.55a3,3,0,0,1-2.93-2.36l-1.05-4.77a3,3,0,0,1,2.29-3.57l11.15-2.45a3,3,0,0,1,3.58,2.29l1,4.77A3,3,0,0,1,196.08,71h0l-11.15,2.44A2.79,2.79,0,0,1,184.29,73.55ZM194.4,61.37a2.09,2.09,0,0,0-.43,0l-11.14,2.44a2,2,0,0,0-1.51,2.35L182.37,71a2,2,0,0,0,2.34,1.5L195.86,70a2,2,0,0,0,1.5-2.34l-1-4.77a2,2,0,0,0-1.92-1.55ZM196,70.54h0Z" fill="#231f20"></path><path d="M204.16,69.2a3,3,0,0,1-1.62-.48,3,3,0,0,1-1.31-1.88l-1-4.77a3,3,0,0,1,.4-2.26,3,3,0,0,1,1.89-1.32l11.14-2.44a3,3,0,0,1,3.58,2.29l1,4.77A3,3,0,0,1,216,66.69l-11.14,2.44A3.69,3.69,0,0,1,204.16,69.2ZM214.27,57a2.1,2.1,0,0,0-.43.05L202.7,59.5a1.94,1.94,0,0,0-1.24.86,2,2,0,0,0-.27,1.49l1.05,4.77a2,2,0,0,0,2.34,1.5l11.15-2.44h0a2,2,0,0,0,1.24-.86,2,2,0,0,0,.26-1.49l-1-4.77A2,2,0,0,0,214.27,57Z" fill="#231f20"></path><path d="M196.82,63.32a.48.48,0,0,1-.26-.07.52.52,0,0,1-.19-.7c.47-.81,2-2.08,4.51-1.07a.52.52,0,0,1-.38,1c-2.24-.9-3.14.47-3.23.63A.53.53,0,0,1,196.82,63.32Z" fill="#231f20"></path><polygon points="97.2 196.44 302.8 196.44 335.79 256.69 64.21 256.69 97.2 196.44" fill="#fff"></polygon><path d="M335.79,257.19H64.21a.51.51,0,0,1-.43-.24.52.52,0,0,1,0-.5l33-60.25a.49.49,0,0,1,.44-.26H302.79a.49.49,0,0,1,.44.26l33,60.25a.52.52,0,0,1,0,.5A.51.51,0,0,1,335.79,257.19Zm-270.73-1H334.94L302.5,196.94H97.5Z" fill="#d1d3d4"></path><path d="M100.39,157.57l.44-1.9c1-1.9,2.11-3.18,4.69-3.18h97.87a5.48,5.48,0,0,1,5.25,3.94l15.91,54.66a4.88,4.88,0,0,1-2.71,6.11l-1.73.41Z" fill="#fff"></path><path d="M220.11,218.11a.59.59,0,0,1-.22-.05L100.17,158a.49.49,0,0,1-.26-.56l.44-1.9a.65.65,0,0,1,0-.13c1-1.81,2.15-3.44,5.13-3.44h97.87a6,6,0,0,1,5.73,4.3L225,211a5.38,5.38,0,0,1-3,6.72l-1.79.43ZM101,157.3l119.21,59.78,1.55-.36c2.41-.94,2.91-3.51,2.34-5.49l-15.91-54.66a5,5,0,0,0-4.77-3.58H105.52c-2.21,0-3.16,1-4.22,2.86Z" fill="#231f20"></path><path d="M220.11,217.61H120.24a3.16,3.16,0,0,1-3-2.28l-16.81-57.76a1.49,1.49,0,0,1,1.43-1.9H204.4l17.37,59.73A1.72,1.72,0,0,1,220.11,217.61Z" fill="#231f20"></path><path d="M220.11,218.11H120.24a3.69,3.69,0,0,1-3.52-2.64L99.91,157.71a2,2,0,0,1,1.91-2.53H204.4a.48.48,0,0,1,.47.35l17.38,59.73a2.23,2.23,0,0,1-2.14,2.85ZM101.82,156.17a1,1,0,0,0-.95,1.26l16.8,57.76a2.69,2.69,0,0,0,2.57,1.92h99.87a1.25,1.25,0,0,0,1-.49,1.23,1.23,0,0,0,.19-1.08L204,156.17Z" fill="#231f20"></path><path d="M203.36,193l-6.07,25.81a6.27,6.27,0,0,1-6.12,4.85H128a6.29,6.29,0,0,1-6.12-7.73L127.23,193H122l-5.12,21.75a11.43,11.43,0,0,0,11.13,14h63.21A11.4,11.4,0,0,0,202.3,220l6.34-27Z" fill="#fff"></path><path d="M191.17,229.32H128a11.93,11.93,0,0,1-11.61-14.66l5.11-21.76a.5.5,0,0,1,.49-.38h5.28a.51.51,0,0,1,.39.19.49.49,0,0,1,.09.42l-5.39,22.93a5.8,5.8,0,0,0,5.64,7.12h63.21a5.78,5.78,0,0,0,5.64-4.47l6.07-25.81a.49.49,0,0,1,.48-.38h5.28a.51.51,0,0,1,.49.61l-6.35,27A11.88,11.88,0,0,1,191.17,229.32Zm-68.83-35.8-5,21.37A10.92,10.92,0,0,0,128,228.32h63.21a10.89,10.89,0,0,0,10.64-8.43l6.2-26.37h-4.25l-6,25.42a6.75,6.75,0,0,1-6.61,5.24H128a6.79,6.79,0,0,1-6.61-8.35l5.24-22.31Z" fill="#231f20"></path><path d="M284.82,140.37s8.94,39.7,1.62,49.84S228,198.75,228,198.75s-8.29,9.95-15.49,9.29-3-14.28,5.47-19.95l-1.17-4.73,45.07-7.23-6-28.53" fill="#fff"></path><path d="M213.17,208.57q-.37,0-.75,0a4.22,4.22,0,0,1-3.92-3.35c-1.13-4.43,2.49-12.88,8.86-17.32l-1.08-4.39a.49.49,0,0,1,.06-.39.49.49,0,0,1,.34-.22l44.55-7.15-5.9-28a.5.5,0,0,1,.39-.59.49.49,0,0,1,.59.38l6,28.53a.49.49,0,0,1-.08.39.49.49,0,0,1-.33.21l-44.53,7.15,1,4.2a.49.49,0,0,1-.2.53c-6.12,4.1-9.79,12.35-8.74,16.45a3.19,3.19,0,0,0,3,2.59c6.85.64,15-9,15.06-9.11a.5.5,0,0,1,.4-.18c.51,0,51,1.47,58.06-8.34s-1.6-49-1.69-49.43a.5.5,0,1,1,1-.22c.37,1.63,8.9,40,1.53,50.24-7.2,10-54.39,8.88-58.66,8.75C227,200.62,219.87,208.57,213.17,208.57Z" fill="#231f20"></path><path d="M231.19,120.71a.46.46,0,0,1-.22-.06.5.5,0,0,1-.24-.68c7.26-15,25.9-25.09,26.09-25.19a.5.5,0,0,1,.69.21.51.51,0,0,1-.21.7c-.18.1-18.53,10-25.64,24.73A.53.53,0,0,1,231.19,120.71Z" fill="#231f20"></path><path d="M200.37,120a.54.54,0,0,1-.22,0C182.73,112,180.62,94.42,180.6,94.25a.52.52,0,0,1,.46-.57.51.51,0,0,1,.57.45c0,.17,2.08,17.18,19,24.84a.52.52,0,0,1,.26.68A.53.53,0,0,1,200.37,120Z" fill="#231f20"></path><path d="M121,142.67a.52.52,0,0,1,0-1c7.54-.23,11.2-4.49,11.24-4.53a.51.51,0,0,1,.72-.07.52.52,0,0,1,.07.73c-.16.19-4,4.66-12,4.9Z" fill="#231f20"></path><path d="M255.82,148.11a.51.51,0,0,1-.5-.39c0-.18-4.71-18.61-5.36-29.66a.51.51,0,0,1,.48-.54.52.52,0,0,1,.55.48c.65,10.95,5.29,29.28,5.33,29.47a.52.52,0,0,1-.37.63Z" fill="#231f20"></path><path d="M175.22,151.4h0a.51.51,0,0,1-.48-.55L177.22,112a.51.51,0,0,1,.55-.48.5.5,0,0,1,.48.54l-2.52,38.85A.51.51,0,0,1,175.22,151.4Z" fill="#231f20"></path><path d="M263.76,129.67a.5.5,0,0,1-.45-.27l-4.84-9a.54.54,0,0,1,0-.41.55.55,0,0,1,.27-.31l15-7.09a.51.51,0,0,1,.69.24.52.52,0,0,1-.24.69l-14.54,6.86,4.38,8.12L278.76,124a.52.52,0,1,1,.3,1l-15.15,4.68Z" fill="#231f20"></path><ellipse cx="276.75" cy="236.35" rx="24.69" ry="7.43" fill="#fff"></ellipse><path d="M276.75,244.28c-14.12,0-25.19-3.48-25.19-7.93s11.07-7.93,25.19-7.93,25.19,3.48,25.19,7.93S290.87,244.28,276.75,244.28Zm0-14.86c-14.47,0-24.19,3.58-24.19,6.93s9.72,6.93,24.19,6.93,24.19-3.58,24.19-6.93S291.22,229.42,276.75,229.42Z" fill="#d1d3d4"></path><path d="M258.14,215.13l-.59.11a7.33,7.33,0,0,0-4.56,2.57,6.31,6.31,0,0,0-.15,6.67c2.62,4.72,9,6,13.92,6.49a4.42,4.42,0,0,0,2.08-.16,1.7,1.7,0,0,0,1.15-1.58,1.74,1.74,0,0,0-1-1.33,5.35,5.35,0,0,0-1.63-.46c-3.06-.5-6.28-.87-9.08-2.28-1.63-.83-3.91-2.72-2.72-4.76a3.89,3.89,0,0,1,1.72-1.46c2.81-1.34,5.48-.32,8.25.5a1.53,1.53,0,0,0,.63.09,1.12,1.12,0,0,0,.81-1.25c-.09-1.21-1.3-2-2.44-2.45A12.8,12.8,0,0,0,258.14,215.13Z" fill="#fff"></path><path d="M267.59,231.52a8.14,8.14,0,0,1-.87-.05c-7.51-.71-12.19-2.91-14.32-6.75a6.79,6.79,0,0,1,.19-7.21,7.85,7.85,0,0,1,4.86-2.76l.62-.11h0a13.22,13.22,0,0,1,6.68.73c1,.37,2.63,1.24,2.76,2.87a1.63,1.63,0,0,1-1.24,1.79,2.17,2.17,0,0,1-.84-.11l-.72-.22c-2.46-.75-4.78-1.45-7.17-.31a3.35,3.35,0,0,0-1.51,1.27,1.7,1.7,0,0,0-.19,1.4,5.37,5.37,0,0,0,2.7,2.65,26.57,26.57,0,0,0,7.81,2.06l1.13.18a5.56,5.56,0,0,1,1.79.51,2,2,0,0,1-.25,3.82A4,4,0,0,1,267.59,231.52Zm-9.37-15.89-.57.1a6.92,6.92,0,0,0-4.26,2.37,5.81,5.81,0,0,0-.11,6.14c1.95,3.52,6.38,5.56,13.53,6.23a4.07,4.07,0,0,0,1.84-.12,1.24,1.24,0,0,0,.84-1.09,1.23,1.23,0,0,0-.7-.92,4.7,4.7,0,0,0-1.47-.4l-1.13-.18a27.22,27.22,0,0,1-8.1-2.16,6.28,6.28,0,0,1-3.21-3.25,2.71,2.71,0,0,1,.29-2.2,4.29,4.29,0,0,1,1.94-1.66c2.74-1.31,5.36-.52,7.89.25l.72.22a1.15,1.15,0,0,0,.42.07c.24,0,.39-.41.37-.71-.08-1.12-1.51-1.78-2.12-2a12.22,12.22,0,0,0-6.17-.67Z" fill="#231f20"></path><path d="M260.45,210.07s4.62,23.06,5,24.45,11.3,7.1,20,1.49l7.61-23.57Z" fill="#fff"></path><path d="M276.94,238.94a21.65,21.65,0,0,1-7.64-1.46c-1.92-.74-4.1-1.94-4.34-2.83-.37-1.39-4.81-23.53-5-24.48a.48.48,0,0,1,.52-.59L293.09,212a.49.49,0,0,1,.44.65l-7.61,23.57a.49.49,0,0,1-.21.26A15.89,15.89,0,0,1,276.94,238.94Zm-15.87-28.32c.75,3.75,4.53,22.54,4.86,23.77.14.33,1.94,1.67,5.13,2.64,3,.91,8.74,1.94,14-1.34l7.36-22.79Z" fill="#231f20"></path><ellipse cx="276.79" cy="210.75" rx="7.08" ry="16.35" transform="translate(54.88 478.66) rotate(-87.65)" fill="#231f20"></ellipse><path d="M278.07,218.35c-.53,0-1.06,0-1.59,0-9.45-.38-16.71-4-16.53-8.26s7.71-7.26,17.15-6.87,16.7,4,16.52,8.26c-.08,2.1-2,4-5.31,5.24A29,29,0,0,1,278.07,218.35Zm-2.51-14.21c-7.93,0-14.48,2.6-14.62,6-.14,3.56,7,6.87,15.58,7.22A29.53,29.53,0,0,0,288,215.75c2.9-1.11,4.6-2.7,4.67-4.35.15-3.57-7-6.88-15.57-7.23Z" fill="#231f20"></path><path d="M237.67,146H184.76a.5.5,0,0,1-.5-.5V129.88a.51.51,0,0,1,.5-.5h52.91a.5.5,0,0,1,.5.5v15.65A.5.5,0,0,1,237.67,146Zm-52.41-1h51.91V130.38H185.26Z" fill="#fff"></path><rect x="64.21" y="256.69" width="271.57" height="10.47" fill="#fff"></rect><path d="M335.79,267.66H64.21a.5.5,0,0,1-.5-.5V256.69a.51.51,0,0,1,.5-.5H335.79a.51.51,0,0,1,.5.5v10.47A.5.5,0,0,1,335.79,267.66Zm-271.08-1H335.29v-9.47H64.71Z" fill="#d1d3d4"></path><path d="M293.05,158.91h0a.51.51,0,0,1-.49-.51c0-1.15.73-28.26,3.72-37.65s8.6-13.3,8.83-13.45a.5.5,0,0,1,.56.83c-.06,0-5.53,3.79-8.44,12.92s-3.66,37.09-3.67,37.37A.5.5,0,0,1,293.05,158.91Z" fill="#fff"></path></g></svg>